<svg width="71" height="70" viewBox="0 0 71 70" fill="none" xmlns="http://www.w3.org/2000/svg">
<g clip-path="url(#clip0_584_78202)">
<rect x="0.628418" width="70" height="70" rx="8.53659" fill="#F8FAFC"/>
<g clip-path="url(#clip1_584_78202)">
<path d="M60.3879 34.8354L32.5364 6.98528V11.2599L56.113 34.8354L56.122 34.8444L35.7001 55.2653L35.6755 55.2407L15.2671 34.8354L15.2492 34.8175L25.2678 24.7994H20.9192L10.8916 34.8265L10.9005 34.8354L35.6666 59.6003L35.6755 59.5914L60.4102 34.8578L60.3879 34.8354Z" fill="#FE6309"/>
<path d="M32.5281 14.2019V18.4766L48.8965 34.8442L35.7097 48.0303L22.5117 34.8352L22.4938 34.8173L32.5125 24.7991H28.1638L18.1362 34.8263L18.1452 34.8352L33.5253 50.2146L35.6761 52.3653L37.8627 50.1811L53.1847 34.8576L32.5281 14.2019Z" fill="#FE6309"/>
<path d="M45.9653 34.8354L37.7979 26.6594L35.6247 24.4863L33.4872 26.6237L25.2773 34.8265L33.4917 43.0404L35.6425 45.1912L37.8247 43.0069L45.9876 34.8578L45.9653 34.8354ZM35.6806 40.8718L29.6439 34.8354L29.626 34.8175L35.647 28.7968L41.6837 34.8332L35.6806 40.8718Z" fill="#FE6309"/>
</g>
</g>
<defs>
<clipPath id="clip0_584_78202">
<rect x="0.628418" width="70" height="70" rx="8.53659" fill="white"/>
</clipPath>
<clipPath id="clip1_584_78202">
<rect width="212.858" height="52.9268" fill="white" transform="translate(10.8726 6.8291)"/>
</clipPath>
</defs>
</svg>
