<svg width="56" height="56" viewBox="0 0 56 56" fill="none" xmlns="http://www.w3.org/2000/svg">
<rect x="4" y="4" width="48" height="48" rx="24" fill="#FFEDD5"/>
<rect x="4" y="4" width="48" height="48" rx="24" stroke="#FFF7ED" stroke-width="8"/>
<path d="M23 24.5L25 22.5L23 20.5L21 22.5L23 24.5ZM28 23.5C26.7 23.5 25.579 23.9333 24.637 24.8C23.695 25.6667 23.1577 26.7333 23.025 28H20V19H36V28H32.975C32.8417 26.7333 32.3043 25.6667 31.363 24.8C30.4217 23.9333 29.3007 23.5 28 23.5ZM20 30C19.45 30 18.9793 29.8043 18.588 29.413C18.1967 29.0217 18.0007 28.5507 18 28V19C18 18.45 18.196 17.9793 18.588 17.588C18.98 17.1967 19.4507 17.0007 20 17H36C36.55 17 37.021 17.196 37.413 17.588C37.805 17.98 38.0007 18.4507 38 19V28C38 28.55 37.8043 29.021 37.413 29.413C37.0217 29.805 36.5507 30.0007 36 30H32.775C32.875 29.6667 32.9417 29.3333 32.975 29C33.0083 28.6667 33.0083 28.3333 32.975 28H36V19H20V28H23.025C22.9917 28.3333 22.9917 28.6667 23.025 29C23.0583 29.3333 23.125 29.6667 23.225 30H20ZM32.5 23C32.9167 23 33.271 22.8543 33.563 22.563C33.855 22.2717 34.0007 21.9173 34 21.5C34 21.0833 33.8543 20.7293 33.563 20.438C33.2717 20.1467 32.9173 20.0007 32.5 20C32.0833 20 31.7293 20.146 31.438 20.438C31.1467 20.73 31.0007 21.084 31 21.5C31 21.9167 31.146 22.271 31.438 22.563C31.73 22.855 32.084 23.0007 32.5 23ZM21 39V36.9C21 36.3167 21.1627 35.775 21.488 35.275C21.8133 34.775 22.2423 34.4 22.775 34.15C23.5917 33.7667 24.4417 33.4793 25.325 33.288C26.2083 33.0967 27.1 33.0007 28 33C28.9 33 29.7917 33.096 30.675 33.288C31.5583 33.48 32.4083 33.7673 33.225 34.15C33.7583 34.4 34.1877 34.775 34.513 35.275C34.8383 35.775 35.0007 36.3167 35 36.9V39H21ZM28 32C27.0333 32 26.2083 31.6583 25.525 30.975C24.8417 30.2917 24.5 29.4667 24.5 28.5C24.5 27.5333 24.8417 26.7083 25.525 26.025C26.2083 25.3417 27.0333 25 28 25C28.9667 25 29.7917 25.3417 30.475 26.025C31.1583 26.7083 31.5 27.5333 31.5 28.5C31.5 29.4667 31.1583 30.2917 30.475 30.975C29.7917 31.6583 28.9667 32 28 32Z" fill="#FF8200"/>
</svg>
