<svg width="56" height="56" viewBox="0 0 56 56" fill="none" xmlns="http://www.w3.org/2000/svg">
<rect x="4" y="4" width="48" height="48" rx="24" fill="#FFEDD5"/>
<rect x="4" y="4" width="48" height="48" rx="24" stroke="#FFF7ED" stroke-width="8"/>
<g clip-path="url(#clip0_611_461)">
<path d="M22.6667 22.6667C22.8435 22.6667 23.013 22.5965 23.1381 22.4714C23.2631 22.3464 23.3333 22.1769 23.3333 22V18C23.3333 17.8232 23.2631 17.6537 23.1381 17.5286C23.013 17.4036 22.8435 17.3334 22.6667 17.3334C22.4899 17.3334 22.3203 17.4036 22.1953 17.5286C22.0702 17.6537 22 17.8232 22 18V22C22 22.1769 22.0702 22.3464 22.1953 22.4714C22.3203 22.5965 22.4899 22.6667 22.6667 22.6667Z" fill="#FF8200"/>
<path d="M36.0001 25C34.674 25 33.4022 24.4732 32.4646 23.5355C31.5269 22.5978 31.0001 21.326 31.0001 20H24.1334V22C24.1334 22.3889 23.9789 22.762 23.7038 23.037C23.4288 23.3121 23.0557 23.4666 22.6668 23.4666C22.2778 23.4666 21.9047 23.3121 21.6297 23.037C21.3546 22.762 21.2001 22.3889 21.2001 22V20H18.5334C18.3748 19.9981 18.2174 20.0282 18.0705 20.0883C17.9237 20.1483 17.7904 20.2373 17.6785 20.3498C17.5666 20.4623 17.4784 20.5961 17.4192 20.7432C17.3599 20.8904 17.3307 21.048 17.3334 21.2066V36.1266C17.3308 36.2825 17.3589 36.4373 17.4161 36.5823C17.4733 36.7273 17.5585 36.8596 17.6668 36.9716C17.7751 37.0837 17.9045 37.1733 18.0475 37.2353C18.1904 37.2974 18.3442 37.3307 18.5001 37.3333H37.5001C37.6559 37.3307 37.8097 37.2974 37.9527 37.2353C38.0957 37.1733 38.225 37.0837 38.3334 36.9716C38.4417 36.8596 38.5269 36.7273 38.5841 36.5823C38.6413 36.4373 38.6694 36.2825 38.6668 36.1266V24.2266C37.8695 24.7327 36.9444 25.0009 36.0001 25ZM22.6668 33.3333H21.3334V32H22.6668V33.3333ZM22.6668 30H21.3334V28.6666H22.6668V30ZM22.6668 26.6666H21.3334V25.3333H22.6668V26.6666ZM26.6668 33.3333H25.3334V32H26.6668V33.3333ZM26.6668 30H25.3334V28.6666H26.6668V30ZM26.6668 26.6666H25.3334V25.3333H26.6668V26.6666ZM30.6668 33.3333H29.3334V32H30.6668V33.3333ZM30.6668 30H29.3334V28.6666H30.6668V30ZM30.6668 26.6666H29.3334V25.3333H30.6668V26.6666ZM34.6668 33.3333H33.3334V32H34.6668V33.3333ZM34.6668 30H33.3334V28.6666H34.6668V30ZM34.6668 26.6666H33.3334V25.3333H34.6668V26.6666Z" fill="#FF8200"/>
<path d="M36.0001 23.3333C37.841 23.3333 39.3334 21.8409 39.3334 20C39.3334 18.159 37.841 16.6666 36.0001 16.6666C34.1591 16.6666 32.6667 18.159 32.6667 20C32.6667 21.8409 34.1591 23.3333 36.0001 23.3333Z" fill="#FF8200"/>
</g>
<defs>
<clipPath id="clip0_611_461">
<rect width="24" height="24" fill="white" transform="translate(16 16)"/>
</clipPath>
</defs>
</svg>
