<svg width="56" height="56" viewBox="0 0 56 56" fill="none" xmlns="http://www.w3.org/2000/svg">
<rect x="4" y="4" width="48" height="48" rx="24" fill="#FFEDD5"/>
<rect x="4" y="4" width="48" height="48" rx="24" stroke="#FFF7ED" stroke-width="8"/>
<path d="M28 33C28.5304 33 29.0391 32.7893 29.4142 32.4142C29.7893 32.0391 30 31.5304 30 31C30 30.4696 29.7893 29.9609 29.4142 29.5858C29.0391 29.2107 28.5304 29 28 29C27.4696 29 26.9609 29.2107 26.5858 29.5858C26.2107 29.9609 26 30.4696 26 31C26 31.5304 26.2107 32.0391 26.5858 32.4142C26.9609 32.7893 27.4696 33 28 33ZM34 24C34.5304 24 35.0391 24.2107 35.4142 24.5858C35.7893 24.9609 36 25.4696 36 26V36C36 36.5304 35.7893 37.0391 35.4142 37.4142C35.0391 37.7893 34.5304 38 34 38H22C21.4696 38 20.9609 37.7893 20.5858 37.4142C20.2107 37.0391 20 36.5304 20 36V26C20 25.4696 20.2107 24.9609 20.5858 24.5858C20.9609 24.2107 21.4696 24 22 24H23V22C23 20.6739 23.5268 19.4021 24.4645 18.4645C25.4021 17.5268 26.6739 17 28 17C28.6566 17 29.3068 17.1293 29.9134 17.3806C30.52 17.6319 31.0712 18.0002 31.5355 18.4645C31.9998 18.9288 32.3681 19.48 32.6194 20.0866C32.8707 20.6932 33 21.3434 33 22V24H34ZM28 19C27.2044 19 26.4413 19.3161 25.8787 19.8787C25.3161 20.4413 25 21.2044 25 22V24H31V22C31 21.2044 30.6839 20.4413 30.1213 19.8787C29.5587 19.3161 28.7956 19 28 19Z" fill="#FF8200"/>
</svg>
