<svg width="56" height="56" viewBox="0 0 56 56" fill="none" xmlns="http://www.w3.org/2000/svg">
<rect x="4" y="4" width="48" height="48" rx="24" fill="#FFEDD5"/>
<rect x="4" y="4" width="48" height="48" rx="24" stroke="#FFF7ED" stroke-width="8"/>
<path d="M38 28C38 22.477 33.523 18 28 18C22.477 18 18 22.477 18 28C18 33.523 22.477 38 28 38C33.523 38 38 33.523 38 28ZM23.5 24.744C23.847 24.362 24.415 24 25.25 24C26.402 24 27.144 24.792 27.405 25.661C27.658 26.508 27.505 27.556 26.785 28.279C26.5353 28.5191 26.2704 28.7429 25.992 28.949L25.952 28.98C25.672 29.196 25.422 29.392 25.202 29.61C24.947 29.866 24.738 30.145 24.617 30.5H26.75C26.9489 30.5 27.1397 30.579 27.2803 30.7197C27.421 30.8603 27.5 31.0511 27.5 31.25C27.5 31.4489 27.421 31.6397 27.2803 31.7803C27.1397 31.921 26.9489 32 26.75 32H23.75C23.5511 32 23.3603 31.921 23.2197 31.7803C23.079 31.6397 23 31.4489 23 31.25C23 30.003 23.524 29.167 24.144 28.549C24.44 28.253 24.762 28.004 25.034 27.793L25.037 27.791C25.323 27.57 25.545 27.398 25.722 27.221C25.994 26.947 26.089 26.496 25.968 26.091C25.853 25.71 25.598 25.5 25.25 25.5C24.897 25.5 24.715 25.637 24.61 25.753C24.5486 25.8208 24.4986 25.8981 24.462 25.982V25.985C24.4007 26.1744 24.2668 26.3316 24.0895 26.4222C23.9123 26.5128 23.7064 26.5293 23.517 26.468C23.3276 26.4067 23.1704 26.2728 23.0798 26.0955C22.9892 25.9183 22.9727 25.7124 23.034 25.523L23.069 25.427C23.1717 25.1762 23.3182 24.9451 23.5 24.744ZM29.25 24C29.4489 24 29.6397 24.079 29.7803 24.2197C29.921 24.3603 30 24.5511 30 24.75V27.5H31.5V24.75C31.5 24.5511 31.579 24.3603 31.7197 24.2197C31.8603 24.079 32.0511 24 32.25 24C32.4489 24 32.6397 24.079 32.7803 24.2197C32.921 24.3603 33 24.5511 33 24.75V31.22C33 31.4189 32.921 31.6097 32.7803 31.7503C32.6397 31.891 32.4489 31.97 32.25 31.97C32.0511 31.97 31.8603 31.891 31.7197 31.7503C31.579 31.6097 31.5 31.4189 31.5 31.22V29H29.25C29.0511 29 28.8603 28.921 28.7197 28.7803C28.579 28.6397 28.5 28.4489 28.5 28.25V24.75C28.5 24.5511 28.579 24.3603 28.7197 24.2197C28.8603 24.079 29.0511 24 29.25 24Z" fill="#FF8200"/>
</svg>
