<svg width="56" height="56" viewBox="0 0 56 56" fill="none" xmlns="http://www.w3.org/2000/svg">
<rect x="4" y="4" width="48" height="48" rx="24" fill="#FFEDD5"/>
<rect x="4" y="4" width="48" height="48" rx="24" stroke="#FFF7ED" stroke-width="8"/>
<path d="M36 24L30 18H22C21.4696 18 20.9609 18.2107 20.5858 18.5858C20.2107 18.9609 20 19.4696 20 20V36C20 36.5304 20.2107 37.0391 20.5858 37.4142C20.9609 37.7893 21.4696 38 22 38H34C34.5304 38 35.0391 37.7893 35.4142 37.4142C35.7893 37.0391 36 36.5304 36 36V24ZM25 35H23V26H25V35ZM29 35H27V29H29V35ZM33 35H31V32H33V35ZM30 25H29V20L34 25H30Z" fill="#FF8200"/>
</svg>
