<svg width="56" height="56" viewBox="0 0 56 56" fill="none" xmlns="http://www.w3.org/2000/svg">
<rect x="4" y="4" width="48" height="48" rx="24" fill="#FFEDD5"/>
<rect x="4" y="4" width="48" height="48" rx="24" stroke="#FFF7ED" stroke-width="8"/>
<g clip-path="url(#clip0_611_452)">
<path fill-rule="evenodd" clip-rule="evenodd" d="M28.9033 31.9959C29.897 31.42 30.7654 30.6513 31.4576 29.7348C31.2336 29.3889 31.075 29.0048 30.9896 28.6017L30.9571 28.4508C30.8628 28.0205 30.6426 27.628 30.3245 27.3233C30.0064 27.0186 29.6047 26.8155 29.1708 26.7399C25.6188 26.1228 25.6188 21.0245 29.1708 20.4057C29.59 20.3328 29.9795 20.1409 30.2926 19.8527C30.6057 19.5645 30.8292 19.1923 30.9365 18.7805C30.1012 17.8703 29.0791 17.1515 27.9401 16.6731C26.8012 16.1948 25.5722 15.9683 24.3376 16.0092C23.1029 16.0501 21.8917 16.3574 20.7868 16.91C19.682 17.4626 18.7097 18.2475 17.9365 19.211C17.1632 20.1744 16.6074 21.2936 16.307 22.4918C16.0067 23.6901 15.9689 24.9391 16.1962 26.1534C16.4235 27.3676 16.9107 28.5184 17.6242 29.5268C18.3377 30.5352 19.2608 31.3775 20.3302 31.9959V33.9999C20.3302 34.4546 20.5108 34.8906 20.8323 35.2121C21.1538 35.5336 21.5898 35.7142 22.0445 35.7142H27.1873C27.642 35.7142 28.078 35.5336 28.3995 35.2121C28.721 34.8906 28.9016 34.4546 28.9016 33.9999L28.9033 31.9959ZM20.3319 38.7142C20.3319 38.3732 20.4674 38.0462 20.7085 37.8051C20.9496 37.564 21.2766 37.4285 21.6176 37.4285H27.6176C27.9586 37.4285 28.2856 37.564 28.5268 37.8051C28.7679 38.0462 28.9033 38.3732 28.9033 38.7142C28.9033 39.0552 28.7679 39.3823 28.5268 39.6234C28.2856 39.8645 27.9586 39.9999 27.6176 39.9999H21.6176C21.2766 39.9999 20.9496 39.8645 20.7085 39.6234C20.4674 39.3823 20.3319 39.0552 20.3319 38.7142ZM32.8119 18.9434C33.1256 17.5102 35.1656 17.5017 35.4913 18.9314L35.5068 18.9999L35.5376 19.1337C35.7216 19.9172 36.1319 20.6294 36.7174 21.1817C37.3029 21.734 38.0378 22.102 38.8308 22.2399C40.3256 22.5005 40.3256 24.6468 38.8308 24.9074C38.0333 25.0462 37.2946 25.4175 36.7075 25.9747C36.1204 26.532 35.711 27.2502 35.5308 28.0394L35.4913 28.2142C35.1656 29.6457 33.1239 29.6371 32.8085 28.2022L32.7759 28.0531C32.6031 27.2613 32.1984 26.539 31.6134 25.9781C31.0284 25.4172 30.2897 25.0433 29.4913 24.9039C27.9982 24.6451 27.9982 22.5022 29.4913 22.2417C30.2869 22.1033 31.0235 21.732 31.6079 21.1748C32.1923 20.6175 32.5982 19.8994 32.7742 19.1114L32.7999 18.9999L32.8119 18.9434Z" fill="#FF8200"/>
</g>
<defs>
<clipPath id="clip0_611_452">
<rect width="24" height="24" fill="white" transform="translate(16 16)"/>
</clipPath>
</defs>
</svg>
