<svg width="56" height="56" viewBox="0 0 56 56" fill="none" xmlns="http://www.w3.org/2000/svg">
<rect x="4" y="4" width="48" height="48" rx="24" fill="#FFEDD5"/>
<rect x="4" y="4" width="48" height="48" rx="24" stroke="#FFF7ED" stroke-width="8"/>
<path d="M37 18H19C18.4696 18 17.9609 18.2107 17.5858 18.5858C17.2107 18.9609 17 19.4696 17 20V32C17 32.5304 17.2107 33.0391 17.5858 33.4142C17.9609 33.7893 18.4696 34 19 34H26V36H24V38H32V36H30V34H37C37.5304 34 38.0391 33.7893 38.4142 33.4142C38.7893 33.0391 39 32.5304 39 32V20C39 19.4696 38.7893 18.9609 38.4142 18.5858C38.0391 18.2107 37.5304 18 37 18ZM37 32H19V20H37V32Z" fill="#FF8200"/>
<path d="M22 23V29C22 29.2652 22.1054 29.5196 22.2929 29.7071C22.4804 29.8946 22.7348 30 23 30H33C33.2652 30 33.5196 29.8946 33.7071 29.7071C33.8946 29.5196 34 29.2652 34 29V23C34 22.7348 33.8946 22.4804 33.7071 22.2929C33.5196 22.1054 33.2652 22 33 22H23C22.7348 22 22.4804 22.1054 22.2929 22.2929C22.1054 22.4804 22 22.7348 22 23ZM33 29H23V24H33V29Z" fill="#FF8200"/>
</svg>
