<svg width="56" height="56" viewBox="0 0 56 56" fill="none" xmlns="http://www.w3.org/2000/svg">
<rect x="4" y="4" width="48" height="48" rx="24" fill="#FFEDD5"/>
<rect x="4" y="4" width="48" height="48" rx="24" stroke="#FFF7ED" stroke-width="8"/>
<path d="M27 21H24L28 17L32 21H29V25.43C28.25 25.89 27.58 26.46 27 27.12V21ZM38 27L34 23V26C32.2631 25.9286 30.5656 26.5303 29.2614 27.6798C27.9573 28.8293 27.1472 30.4378 27 32.17C26.2502 32.4362 25.6365 32.9889 25.2935 33.7068C24.9504 34.4247 24.906 35.2494 25.17 36C25.4362 36.7498 25.9889 37.3635 26.7068 37.7065C27.4247 38.0496 28.2494 38.094 29 37.83C29.7492 37.5629 30.3622 37.0101 30.7051 36.2925C31.0479 35.5748 31.0929 34.7507 30.83 34C30.53 33.14 29.85 32.47 29 32.17C29.47 28.17 33.47 27.97 33.95 27.97V30.97L38 27ZM26.63 27.59C25.3031 26.566 23.6761 26.0072 22 26V23L18 27L22 31V28C23.34 28.03 24.63 28.5 25.64 29.4C25.89 28.76 26.22 28.15 26.63 27.59Z" fill="#FF8200"/>
</svg>
