<svg width="37" height="37" viewBox="0 0 37 37" fill="none" xmlns="http://www.w3.org/2000/svg">
<path d="M28.8607 5.93994H6.84775C5.64492 5.93994 4.59399 6.80541 4.59399 7.99411V30.0559C4.59399 31.2511 5.64492 32.3162 6.84775 32.3162H28.8542C30.0635 32.3162 30.9702 31.2441 30.9702 30.0559V7.99411C30.9773 6.80541 30.0635 5.93994 28.8607 5.93994ZM12.77 27.9258H8.9914V16.1772H12.77V27.9258ZM11.0114 14.3909H10.9843C9.77503 14.3909 8.99199 13.4907 8.99199 12.3639C8.99199 11.2164 9.79564 10.3374 11.032 10.3374C12.2684 10.3374 13.025 11.2099 13.052 12.3639C13.0515 13.4907 12.2684 14.3909 11.0114 14.3909ZM26.5798 27.9258H22.8012V21.5019C22.8012 19.9629 22.2513 18.9114 20.8842 18.9114C19.8398 18.9114 19.2216 19.6179 18.9466 20.3062C18.8436 20.5534 18.8159 20.8902 18.8159 21.234V27.9258H15.0373V16.1772H18.8159V17.8122C19.3658 17.0291 20.2248 15.9023 22.2237 15.9023C24.7041 15.9023 26.5804 17.5372 26.5804 21.0621L26.5798 27.9258Z" fill="white"/>
</svg>
