<svg width="71" height="70" viewBox="0 0 71 70" fill="none" xmlns="http://www.w3.org/2000/svg">
<rect x="0.93042" width="70" height="70" rx="8.53659" fill="#F8FAFC"/>
<g clip-path="url(#clip0_584_78247)">
<path d="M60.1744 10.7564H9.97925V60.95H60.1744V10.7564Z" fill="#FFC325"/>
<path d="M10.7422 35.8538C10.7422 30.6114 21.6371 26.3613 35.0766 26.3613C48.5161 26.3613 59.411 30.6125 59.411 35.8543C59.411 41.0961 48.5166 45.3452 35.0766 45.3452C21.6366 45.3452 10.7422 41.0956 10.7422 35.8538Z" fill="#006891"/>
<path d="M10.7422 35.8538C10.7422 30.6114 21.6371 26.3613 35.0766 26.3613C48.5161 26.3613 59.411 30.6125 59.411 35.8543C59.411 41.0961 48.5166 45.3452 35.0766 45.3452C21.6366 45.3452 10.7422 41.0956 10.7422 35.8538Z" stroke="#006891" stroke-width="0.609897" stroke-miterlimit="3.8636"/>
<path fill-rule="evenodd" clip-rule="evenodd" d="M19.6609 40.4676L22.1865 31.0397H26.1729V36.5847H26.1991L28.9035 31.0397H32.9529L30.4272 40.4676H27.7951L29.4141 34.4201H29.388L26.1729 40.4676H24.0653V34.4201H24.0222L22.4032 40.4676H19.6609Z" fill="white"/>
<path fill-rule="evenodd" clip-rule="evenodd" d="M33.665 40.6537L34.0236 39.3138H36.9287L36.5697 40.6537H33.665Z" fill="#EE4034"/>
<path fill-rule="evenodd" clip-rule="evenodd" d="M34.124 38.9377L35.5935 33.4562H32.9526L33.6006 31.0397H41.787L41.1396 33.4562H38.4987L37.0297 38.9362L34.124 38.9377Z" fill="#FFC325"/>
<path fill-rule="evenodd" clip-rule="evenodd" d="M39.9102 40.4676L42.4343 31.0397H45.2872L46.5743 36.0843H46.5994L47.9506 31.0397H50.5879L48.0633 40.4676H45.3492L43.9514 35.3185H43.9263L42.5474 40.4676H39.9102Z" fill="white"/>
</g>
<defs>
<clipPath id="clip0_584_78247">
<rect x="9.4668" y="10.2439" width="51.2195" height="51.2195" rx="8.53659" fill="white"/>
</clipPath>
</defs>
</svg>
