<svg width="36" height="37" viewBox="0 0 36 37" fill="none" xmlns="http://www.w3.org/2000/svg">
<path d="M18.0493 15.052C17.3156 15.052 16.5984 15.2695 15.9883 15.6772C15.3782 16.0848 14.9027 16.6642 14.6219 17.3421C14.3412 18.0199 14.2677 18.7658 14.4108 19.4855C14.554 20.2051 14.9073 20.8661 15.4261 21.3849C15.9449 21.9037 16.606 22.2571 17.3256 22.4002C18.0452 22.5434 18.7911 22.4699 19.469 22.1891C20.1469 21.9083 20.7262 21.4328 21.1339 20.8228C21.5415 20.2127 21.7591 19.4954 21.7591 18.7617C21.7591 18.2746 21.6631 17.7921 21.4767 17.3421C21.2903 16.892 21.017 16.483 20.6725 16.1385C20.328 15.794 19.9191 15.5208 19.469 15.3343C19.0189 15.1479 18.5365 15.052 18.0493 15.052ZM32.9034 11.3871C32.8955 10.2319 32.6828 9.08726 32.2751 8.00639C31.9748 7.21546 31.5103 6.49719 30.9121 5.89898C30.3139 5.30076 29.5956 4.83621 28.8047 4.53596C27.7238 4.12828 26.5792 3.91556 25.424 3.90769C23.4943 3.80298 22.9259 3.80298 18.0493 3.80298C13.1728 3.80298 12.6043 3.80298 10.6747 3.90769C9.51948 3.91556 8.37486 4.12828 7.29398 4.53596C6.50306 4.83621 5.78479 5.30076 5.18657 5.89898C4.58836 6.49719 4.1238 7.21546 3.82355 8.00639C3.41587 9.08726 3.20316 10.2319 3.19529 11.3871C3.09058 13.3167 3.09058 13.8852 3.09058 18.7617C3.09058 23.6383 3.09058 24.2067 3.19529 26.1364C3.21139 27.2956 3.42382 28.4438 3.82355 29.532C4.12247 30.3193 4.58664 31.0334 5.1848 31.6262C5.78045 32.228 6.50026 32.6926 7.29398 32.9875C8.37486 33.3952 9.51948 33.6079 10.6747 33.6158C12.6043 33.7205 13.1728 33.7205 18.0493 33.7205C22.9259 33.7205 23.4943 33.7205 25.424 33.6158C26.5792 33.6079 27.7238 33.3952 28.8047 32.9875C29.5984 32.6926 30.3182 32.228 30.9138 31.6262C31.512 31.0334 31.9762 30.3193 32.2751 29.532C32.6824 28.4458 32.8951 27.2964 32.9034 26.1364C33.0081 24.2067 33.0081 23.6383 33.0081 18.7617C33.0081 13.8852 33.0081 13.3167 32.9034 11.3871ZM29.1038 23.3541C29.0558 24.2772 28.8588 25.1864 28.5204 26.0466C28.23 26.7642 27.7983 27.416 27.251 27.9634C26.7036 28.5107 26.0518 28.9424 25.3342 29.2328C24.4659 29.5524 23.5516 29.7292 22.6267 29.7564H13.4719C12.5471 29.7292 11.6328 29.5524 10.7644 29.2328C10.0226 28.9572 9.35272 28.5174 8.80482 27.9464C8.26281 27.4098 7.84423 26.7615 7.5782 26.0466C7.25742 25.1792 7.08547 24.2638 7.0696 23.3391V14.1843C7.08547 13.2596 7.25742 12.3442 7.5782 11.4768C7.85386 10.735 8.29364 10.0651 8.86465 9.51722C9.40367 8.97814 10.0513 8.56 10.7644 8.2906C11.6328 7.97109 12.5471 7.79429 13.4719 7.76705H22.6267C23.5516 7.79429 24.4659 7.97109 25.3342 8.2906C26.076 8.56626 26.7459 9.00604 27.2938 9.57705C27.8358 10.1137 28.2544 10.762 28.5204 11.4768C28.84 12.3452 29.0168 13.2595 29.044 14.1843V18.7617C29.044 21.8432 29.1487 22.1574 29.1038 23.3391V23.3541ZM26.7104 12.2248C26.5323 11.7416 26.2515 11.3028 25.8874 10.9386C25.5232 10.5745 25.0844 10.2937 24.6013 10.1156C23.9378 9.88559 23.239 9.7742 22.5369 9.78648H13.5617C12.856 9.79337 12.1572 9.92505 11.4974 10.1754C11.0216 10.3454 10.5874 10.6148 10.2238 10.9655C9.86012 11.3163 9.57528 11.7404 9.38821 12.2098C9.17097 12.876 9.06484 13.5734 9.07407 14.2741V23.2493C9.0889 23.9542 9.22032 24.6517 9.463 25.3137C9.64111 25.7968 9.92191 26.2356 10.2861 26.5998C10.6502 26.9639 11.089 27.2447 11.5722 27.4228C12.2104 27.6576 12.8821 27.7889 13.5617 27.8118H22.5369C23.2426 27.8049 23.9415 27.6732 24.6013 27.4228C25.0844 27.2447 25.5232 26.9639 25.8874 26.5998C26.2515 26.2356 26.5323 25.7968 26.7104 25.3137C26.9608 24.6539 27.0925 23.955 27.0994 23.2493V14.2741C27.0998 13.5677 26.9679 12.8676 26.7104 12.2098V12.2248ZM18.0493 24.476C17.2996 24.476 16.5573 24.3281 15.8648 24.0407C15.1724 23.7534 14.5434 23.3322 14.014 22.8014C13.4846 22.2706 13.0651 21.6405 12.7796 20.9473C12.494 20.2541 12.3481 19.5114 12.35 18.7617C12.35 17.6309 12.6856 16.5255 13.3141 15.5855C13.9427 14.6455 14.836 13.9131 15.881 13.481C16.926 13.049 18.0757 12.9367 19.1846 13.1584C20.2934 13.3801 21.3116 13.9258 22.1102 14.7265C22.9087 15.5271 23.4517 16.5467 23.6705 17.6561C23.8893 18.7656 23.774 19.915 23.3392 20.9589C22.9045 22.0027 22.1697 22.8941 21.2281 23.5202C20.2864 24.1463 19.1801 24.4789 18.0493 24.476ZM24.0328 14.1694C23.7021 14.1344 23.3961 13.9782 23.1737 13.7311C22.9513 13.4839 22.8282 13.1631 22.8282 12.8306C22.8282 12.4981 22.9513 12.1773 23.1737 11.9301C23.3961 11.6829 23.7021 11.5268 24.0328 11.4918C24.3635 11.5268 24.6695 11.6829 24.8919 11.9301C25.1143 12.1773 25.2374 12.4981 25.2374 12.8306C25.2374 13.1631 25.1143 13.4839 24.8919 13.7311C24.6695 13.9782 24.3635 14.1344 24.0328 14.1694Z" fill="white"/>
</svg>
