<svg width="182" height="182" viewBox="0 0 182 182" fill="none" xmlns="http://www.w3.org/2000/svg">
<path d="M118.032 90.7728C123.446 96.2864 126.48 102.872 128.642 111.882L129.686 116.697L130.558 121.32C131.685 127.379 132.357 130.149 133.356 132.356C135.945 138.133 140.568 144.11 147.299 150.25C150.996 153.611 151.25 159.316 147.853 162.985C146.218 164.75 143.953 165.798 141.549 165.902C139.146 166.006 136.799 165.157 135.018 163.539C126.571 155.846 120.448 147.925 116.761 139.714C115.335 136.535 114.472 133.564 113.482 128.668L111.765 119.676L111.447 118.159C109.894 110.874 108.013 106.414 105.025 103.38C99.584 97.8396 86.3859 99.3838 83.1704 104.443C78.438 111.873 77.1936 124.799 81.0631 137.915C84.1514 148.37 88.2571 158.671 93.371 168.799C93.9052 169.858 94.2244 171.013 94.3102 172.196C94.396 173.38 94.2467 174.569 93.871 175.694C93.4952 176.82 92.9004 177.86 92.1209 178.754C91.3414 179.649 90.3925 180.381 89.3289 180.907C87.1784 181.981 84.6904 182.162 82.4071 181.41C80.1238 180.658 78.2302 179.034 77.1391 176.892C71.6245 166.025 67.1038 154.683 63.6322 143.002C58.3639 125.162 60.1169 106.887 67.8105 94.8058C77.2572 80 104.326 76.8299 118.032 90.7728ZM95.2967 110.075C97.703 109.996 100.042 110.877 101.8 112.522C103.557 114.167 104.59 116.443 104.671 118.849C105.127 132.439 109.547 145.599 117.387 156.709L119.113 159.061L121.838 162.604C123.254 164.435 123.918 166.737 123.694 169.041C123.47 171.345 122.375 173.476 120.632 175C118.889 176.523 116.631 177.324 114.318 177.238C112.004 177.153 109.811 176.187 108.186 174.539L107.441 173.676L104.716 170.134C93.4975 155.559 87.134 137.831 86.5222 119.449C86.4438 117.043 87.324 114.704 88.9693 112.946C90.6146 111.188 92.8904 110.155 95.2967 110.075ZM59.8717 65.4575C79.8641 50.6517 105.979 51.4601 123.609 62.787C132.339 68.4005 138.988 74.986 143.438 82.5705C144.656 84.6496 144.998 87.1272 144.389 89.4584C143.78 91.7895 142.27 93.7833 140.191 95.0011C138.112 96.2189 135.634 96.5609 133.303 95.9519C130.972 95.3429 128.978 93.8328 127.761 91.7538C124.854 86.7852 120.23 82.2163 113.781 78.0743C102.155 70.5987 84.2059 70.0446 70.6808 80.0635C56.5108 90.5457 50.5158 108.64 52.3053 127.815C53.3317 138.669 56.6017 149.669 62.1879 160.833C63.2023 162.978 63.3364 165.436 62.5614 167.68C61.7865 169.923 60.1642 171.774 58.0416 172.837C55.9191 173.899 53.465 174.089 51.2046 173.365C48.9441 172.64 47.0569 171.06 45.9469 168.962C39.3797 155.837 35.4557 142.675 34.2294 129.513C31.8768 104.534 39.961 80.1998 59.8717 65.4575ZM155.91 112.328C156.182 117.414 157.409 121.502 159.552 124.744C161.569 127.806 163.176 129.25 163.985 129.495C165.127 129.84 166.19 130.407 167.113 131.163C168.036 131.92 168.801 132.85 169.365 133.902C169.928 134.954 170.279 136.106 170.397 137.293C170.515 138.481 170.398 139.68 170.052 140.822C169.707 141.964 169.14 143.027 168.384 143.95C167.628 144.873 166.698 145.638 165.646 146.202C164.594 146.765 163.441 147.116 162.254 147.234C161.067 147.352 159.868 147.235 158.726 146.89C153.167 145.2 148.516 141.022 144.383 134.745C140.377 128.659 138.197 121.447 137.77 113.254C137.686 112.05 137.842 110.841 138.23 109.698C138.618 108.555 139.23 107.501 140.03 106.597C140.83 105.693 141.802 104.958 142.89 104.434C143.977 103.91 145.158 103.609 146.363 103.546C147.569 103.484 148.775 103.663 149.91 104.072C151.046 104.481 152.089 105.113 152.977 105.929C153.866 106.746 154.583 107.732 155.087 108.829C155.59 109.926 155.87 111.121 155.91 112.328ZM77.0664 36.073C78.0539 38.27 78.1283 40.7694 77.2732 43.0213C76.4181 45.2732 74.7035 47.0933 72.5066 48.0811C56.2111 55.4205 44.2756 65.8209 36.4458 79.3823C26.6085 96.4045 23.9471 116.388 26.1544 133.183C26.3162 134.369 26.2421 135.575 25.9363 136.732C25.6305 137.889 25.099 138.974 24.3724 139.926C23.6458 140.877 22.7384 141.675 21.7023 142.274C20.6663 142.873 19.522 143.262 18.3353 143.417C17.1486 143.573 15.9428 143.493 14.7873 143.181C13.6318 142.869 12.5493 142.332 11.6021 141.6C10.6549 140.868 9.86157 139.957 9.26778 138.918C8.674 137.878 8.29144 136.732 8.1421 135.545C5.46252 115.098 8.64168 91.1906 20.7134 70.299C30.5143 53.3313 45.3747 40.3694 65.0401 31.5131C66.1285 31.0227 67.3028 30.7517 68.496 30.7155C69.6892 30.6793 70.8778 30.8786 71.9939 31.3021C73.11 31.7256 74.1316 32.365 75.0005 33.1836C75.8693 34.0022 76.5773 34.984 77.0664 36.073ZM99.4387 26.699C116.652 27.0532 133.683 34.9194 150.487 49.8615C167.464 64.967 177.692 85.4954 181.143 111.02C181.303 112.202 181.229 113.404 180.924 114.557C180.619 115.71 180.09 116.792 179.367 117.741C177.908 119.658 175.746 120.915 173.359 121.238C170.971 121.561 168.554 120.922 166.637 119.462C164.721 118.003 163.463 115.841 163.14 113.454C160.242 92.0717 152.004 75.531 138.406 63.432C124.618 51.1695 111.52 45.12 99.0572 44.8656C97.8643 44.8412 96.688 44.582 95.5953 44.1029C94.5026 43.6239 93.515 42.9343 92.6888 42.0735C91.8627 41.2128 91.2141 40.1977 90.7802 39.0863C90.3463 37.9749 90.1356 36.7889 90.1601 35.5961C90.1845 34.4032 90.4437 33.2269 90.9227 32.1342C91.4018 31.0415 92.0914 30.0539 92.9522 29.2277C93.8129 28.4016 94.828 27.753 95.9394 27.3191C97.0508 26.8852 98.2458 26.6745 99.4387 26.699ZM32.9669 28.7881C33.7602 29.6791 34.3703 30.7177 34.7622 31.8445C35.1542 32.9713 35.3203 34.1642 35.2512 35.3552C35.182 36.5463 34.8789 37.712 34.3591 38.7858C33.8394 39.8597 33.1132 40.8206 32.222 41.6138C29.8603 43.7211 27.3624 46.2463 24.7555 49.1893C21.9354 52.4866 19.4495 56.0556 17.3344 59.844C16.1213 61.9133 14.139 63.4187 11.8201 64.0318C9.50117 64.6449 7.03387 64.3159 4.95663 63.1165C2.87938 61.9172 1.36084 59.9449 0.732383 57.6301C0.103925 55.3153 0.416573 52.8459 1.6021 50.7607C4.32382 45.911 7.52506 41.3465 11.1578 37.1357C14.2279 33.684 17.2163 30.6502 20.1412 28.0524C21.0316 27.2585 22.0697 26.6477 23.1961 26.255C24.3226 25.8623 25.5154 25.6954 26.7064 25.7637C27.8974 25.832 29.0633 26.1343 30.1375 26.6532C31.2116 27.1721 32.1731 27.8976 32.9669 28.7881ZM95.5056 0.320953C115.87 1.2747 134.755 5.72554 148.779 16.5529C149.749 17.2727 150.566 18.1787 151.182 19.218C151.797 20.2572 152.199 21.4088 152.364 22.6054C152.529 23.8019 152.454 25.0194 152.143 26.1865C151.832 27.3536 151.291 28.447 150.553 29.4026C149.814 30.3582 148.892 31.1569 147.841 31.7519C146.79 32.3469 145.63 32.7262 144.431 32.8678C143.231 33.0093 142.015 32.9102 140.855 32.5762C139.694 32.2423 138.611 31.6801 137.67 30.9227C126.743 22.4934 111.447 19.2506 94.6609 18.4695C77.8022 17.6792 64.0863 20.6676 53.3135 27.2803C51.2634 28.4725 48.8283 28.8156 46.5285 28.2363C44.2287 27.657 42.2468 26.2012 41.0061 24.1801C39.7654 22.1589 39.3644 19.7326 39.8888 17.4197C40.4131 15.1068 41.8213 13.0908 43.8123 11.8023C57.9097 3.14587 75.2134 -0.632797 95.5056 0.320953Z" fill="url(#paint0_linear_584_78061)"/>
<defs>
<linearGradient id="paint0_linear_584_78061" x1="2.86394" y1="91.0221" x2="181.225" y2="91.0221" gradientUnits="userSpaceOnUse">
<stop stop-color="#FF8200"/>
<stop offset="1" stop-color="#FF002B"/>
</linearGradient>
</defs>
</svg>
