<svg width="19" height="18" viewBox="0 0 19 18" fill="none" xmlns="http://www.w3.org/2000/svg">
<path d="M18.1698 14.14L13.9693 10.444C13.7707 10.2693 13.5098 10.1762 13.2416 10.1842C12.9734 10.1922 12.719 10.3008 12.5319 10.487L10.0592 12.948C9.46397 12.838 8.26737 12.477 7.03563 11.288C5.8039 10.095 5.43087 8.934 5.3203 8.362L7.86127 5.968C8.05389 5.78712 8.16624 5.54082 8.17453 5.2812C8.18283 5.02159 8.08641 4.76904 7.9057 4.57699L4.08753 0.512995C3.90674 0.320352 3.65548 0.203499 3.38709 0.187255C3.11871 0.17101 2.85435 0.256653 2.65017 0.425995L0.407834 2.28699C0.229182 2.46051 0.122551 2.69145 0.108167 2.93599C0.0926674 3.18599 -0.202866 9.108 4.5422 13.702C8.68173 17.707 13.867 18 15.2951 18C15.5038 18 15.6319 17.994 15.666 17.992C15.9187 17.9783 16.1572 17.8747 16.3356 17.701L18.2576 15.53C18.4333 15.333 18.5225 15.0774 18.5061 14.8177C18.4896 14.558 18.369 14.3148 18.1698 14.14Z" fill="white"/>
</svg>
