<svg width="21" height="16" viewBox="0 0 21 16" fill="none" xmlns="http://www.w3.org/2000/svg">
<path d="M17.6336 0H3.16689C2.34472 0 1.55623 0.316071 0.974864 0.87868C0.393501 1.44129 0.0668945 2.20435 0.0668945 3V13C0.0668945 13.7956 0.393501 14.5587 0.974864 15.1213C1.55623 15.6839 2.34472 16 3.16689 16H17.6336C18.4557 16 19.2442 15.6839 19.8256 15.1213C20.407 14.5587 20.7336 13.7956 20.7336 13V3C20.7336 2.20435 20.407 1.44129 19.8256 0.87868C19.2442 0.316071 18.4557 0 17.6336 0ZM17.6336 2L10.9169 6.47C10.7598 6.55777 10.5816 6.60397 10.4002 6.60397C10.2188 6.60397 10.0406 6.55777 9.88356 6.47L3.16689 2H17.6336Z" fill="white"/>
</svg>
